<svg width="33" height="33" viewBox="0 0 33 33" fill="none" xmlns="http://www.w3.org/2000/svg">
<circle cx="16.5" cy="16.5" r="16" stroke="black"/>
<path d="M25.7689 11.6873H21.8244L21.5947 10.142C21.568 9.96339 21.4142 9.83045 21.2334 9.83045H19.8134C19.6574 9.50904 19.3309 9.28552 18.9504 9.28552H17.9281C17.3977 9.28552 16.9664 9.71686 16.9664 10.2472C16.9664 10.7775 17.3977 11.2088 17.9281 11.2088H18.9504C19.3704 11.2088 19.7243 10.9367 19.8554 10.5613H20.9186L22.3339 20.0829C21.7079 20.2163 21.1911 20.6436 20.9321 21.2126H16.3272L15.5851 18.6151C15.5402 18.458 15.3966 18.3499 15.2337 18.3499H13.554V16.6961H16.2389C16.7882 16.6961 17.2348 16.2494 17.2348 15.7001V14.7611C17.2348 14.3294 16.9573 13.9649 16.5727 13.8268V12.535C16.5727 11.7063 15.8985 11.0324 15.0701 11.0324H12.4824V9.32935C12.4824 9.12737 12.3192 8.96411 12.1172 8.96411H10.3261C10.1241 8.96411 9.96084 9.12737 9.96084 9.32935V14.1307V15.1797C9.96084 15.9116 10.482 16.5241 11.1727 16.6654V18.3503H10.3261C10.1241 18.3503 9.96084 18.5135 9.96084 18.7155V20.0738C9.03242 20.2462 8.32678 21.0603 8.32678 22.038C8.32678 23.1403 9.22343 24.037 10.3261 24.037C11.0091 24.037 11.6124 23.6926 11.9733 23.1684H21.1038C21.4646 23.6926 22.068 24.037 22.751 24.037C23.8533 24.037 24.7499 23.1403 24.7499 22.038C24.7499 21.0446 24.0209 20.2203 23.0702 20.0669L22.6907 17.5142H23.9858C25.1707 17.5142 26.1345 16.5522 26.1345 15.37C26.1345 13.4799 26.1345 13.9116 26.1345 12.0533C26.1342 11.8509 25.9709 11.6873 25.7689 11.6873ZM18.9504 10.4784H17.9281C17.8006 10.4784 17.6969 10.3746 17.6969 10.2472C17.6969 10.1197 17.8006 10.016 17.9281 10.016H18.9504C19.0782 10.016 19.1819 10.1197 19.1819 10.2472C19.1819 10.3746 19.0782 10.4784 18.9504 10.4784ZM15.0697 11.7625C15.4956 11.7625 15.8418 12.1088 15.8418 12.5346V13.7648H12.4824V11.7625H15.0697ZM10.6913 15.1793V14.1304V9.69421H11.752V14.1304C11.752 14.3323 11.9152 14.4956 12.1172 14.4956H16.1965C16.2001 14.4956 16.2034 14.4978 16.2071 14.4978C16.2107 14.4978 16.214 14.4956 16.2177 14.4956H16.2389C16.3849 14.4956 16.5044 14.6147 16.5044 14.7611V15.7001C16.5044 15.8462 16.3853 15.9657 16.2389 15.9657C14.5522 15.9657 13.1296 15.9657 11.4773 15.9657C11.0441 15.9653 10.6913 15.6125 10.6913 15.1793ZM11.9032 16.6958H12.1172H12.8239V18.3495H11.9032V16.6958ZM14.9583 19.08L15.5672 21.2122C13.771 21.2122 14.9792 21.2122 12.1449 21.2122C11.8787 20.6275 11.34 20.1936 10.6913 20.0731V19.08H14.9583ZM10.3261 23.3058C9.62665 23.3058 9.05725 22.7367 9.05725 22.0373C9.05725 21.3383 9.62592 20.7696 10.3246 20.7689C10.325 20.7689 10.3253 20.7692 10.3257 20.7692C10.3261 20.7692 10.3264 20.7689 10.3268 20.7689C11.0259 20.7696 11.5942 21.3383 11.5942 22.0373C11.5945 22.7367 11.0255 23.3058 10.3261 23.3058ZM12.2848 22.4372C12.3111 22.3079 12.325 22.1743 12.325 22.0373C12.325 22.0055 12.3217 21.9745 12.3203 21.9427H20.7564C20.755 21.9741 20.7517 22.0052 20.7517 22.0373C20.7517 22.1743 20.7656 22.3079 20.7919 22.4372H12.2848ZM24.0191 22.0373C24.0191 22.7367 23.45 23.3058 22.7506 23.3058C22.0512 23.3058 21.4818 22.7367 21.4818 22.0373C21.4818 21.3383 22.0501 20.7696 22.7492 20.7689C22.7495 20.7689 22.7499 20.7692 22.7503 20.7692H22.7524C23.4511 20.7699 24.0191 21.3386 24.0191 22.0373ZM23.9855 16.783H22.5819L21.9329 12.4178H25.4037V13.1022H24.129C23.927 13.1022 23.7638 13.2655 23.7638 13.4675V15.0624C23.7638 15.2644 23.927 15.4277 24.129 15.4277H25.3978C25.3661 16.18 24.7474 16.783 23.9855 16.783ZM25.4037 14.6972H24.4942V13.8327H25.4037V14.6972Z" fill="black"/>
</svg>
