<svg viewBox="0 0 14 14" fill="none" xmlns="http://www.w3.org/2000/svg">
<path d="M10.566 14.0002C9.90566 14.0002 9.24528 13.736 8.71698 13.604C7.39623 13.0757 6.20755 12.2832 5.01887 11.3587C3.43396 10.0379 2.11321 8.5851 1.18868 6.73604C0.528302 5.94359 0.264151 5.01906 0 3.96245C0 3.6983 0 3.30208 0.132075 3.03793C0.792453 1.98132 1.58491 1.05679 2.50943 0.264341L2.64151 0.132266C3.03774 -0.131885 3.30189 0.000190482 3.69811 0.264341L3.83019 0.396417C4.49057 1.32095 5.01887 2.1134 5.54717 3.03793C5.67925 3.17 5.67925 3.43415 5.81132 3.6983C5.9434 3.96245 5.81132 4.22661 5.67925 4.35868C5.41509 4.62283 5.28302 4.75491 5.15094 4.88698C5.01887 5.01906 4.88679 5.15113 4.75472 5.28321C4.62264 5.41528 4.62264 5.41528 4.75472 5.54736C5.28302 7.39642 6.60377 8.71717 8.45283 9.37755C8.58491 9.37755 8.58491 9.37755 8.71698 9.37755C8.98113 8.98132 9.24528 8.71717 9.37736 8.5851C9.64151 8.32094 10.0377 8.18887 10.434 8.32094C10.9623 8.5851 11.4906 8.84925 12.0189 9.1134C12.5472 9.37755 13.0755 9.77377 13.4717 10.17C13.7358 10.3021 13.8679 10.4342 13.8679 10.6983C14 10.9625 14 11.0945 13.8679 11.2266C13.7358 11.3587 13.7358 11.4908 13.6038 11.6228C12.8113 12.5474 11.8868 13.3398 10.8302 13.8681C10.6981 14.0002 10.566 14.0002 10.566 14.0002ZM3.16981 0.924719C3.03774 1.05679 3.03774 1.05679 3.16981 0.924719C2.24528 1.71717 1.58491 2.50962 1.0566 3.30208C0.924528 3.56623 0.924528 3.6983 0.924528 3.83038C1.0566 4.62283 1.45283 5.41528 1.84906 6.20774C3.16981 8.5851 5.01887 10.4342 7.39623 11.887C8.32076 12.5474 9.24528 12.9436 10.3019 13.0757C10.434 13.0757 10.434 13.0757 10.566 13.0757C11.2264 12.6794 11.8868 12.1511 12.4151 11.6228C12.6792 11.3587 12.8113 11.2266 13.0755 10.9625L12.9434 10.8304C12.0189 10.17 11.2264 9.6417 10.3019 9.24547C10.1698 9.1134 10.0377 9.1134 10.0377 9.24547C9.64151 9.6417 9.37736 9.90585 9.11321 10.3021C8.98113 10.4342 8.84906 10.4342 8.58491 10.4342C7.79245 10.17 7.13208 9.77378 6.4717 9.37755C5.15094 8.45302 4.22642 7.13227 3.69811 5.67944C3.56604 5.01906 3.43396 5.15113 3.96226 4.75491C4.22642 4.49076 4.49057 4.22661 4.75472 3.96245C4.88679 3.96245 4.88679 3.83038 4.75472 3.83038C4.49057 3.17 4.22642 2.6417 3.83019 2.1134C3.69811 1.71717 3.43396 1.32095 3.16981 0.924719Z" fill="#000000"/>
</svg>
