<svg width="35" height="35" viewBox="0 0 35 35" fill="none" xmlns="http://www.w3.org/2000/svg">
<path d="M24.4952 34.0542H10.5046V25.9521H24.4952V34.0542ZM11.4506 33.1082H23.5492V26.8981H11.4506V33.1082Z" fill="black"/>
<path d="M24.3629 34.054H24.0034L24.0413 33.108C28.3974 33.283 29.0264 29.679 29.0501 29.5276V29.4756C29.9393 26.1648 27.6879 25.4932 27.5933 25.4695C26.1176 24.9965 24.3676 26.7418 24.3534 26.7607L23.6724 26.0986C23.7622 26.0087 25.8291 23.9134 27.8582 24.5614C28.6361 24.8099 29.2947 25.3371 29.7075 26.0418C30.2703 26.9877 30.3602 28.2317 29.9724 29.7026C29.9061 30.0999 29.0311 34.054 24.3629 34.054Z" fill="black"/>
<path d="M10.6371 34.0541C5.96889 34.0541 5.09389 30.1 5.01821 29.698C4.63038 28.227 4.72024 26.9973 5.28308 26.0372C5.70434 25.3207 6.37969 24.7889 7.17497 24.5473C9.18038 23.9041 11.2425 26.0041 11.3324 26.0939L10.6513 26.7561C10.6513 26.7561 8.90605 24.9872 7.43511 25.4554C7.31686 25.4885 5.07024 26.1412 5.9547 29.471V29.523C5.97835 29.6743 6.60267 33.2784 10.9635 33.1034L11.0013 34.0493L10.6371 34.0541Z" fill="black"/>
<path d="M27.125 25.0675C27.0635 24.831 25.6351 19.2216 26.0182 14.35V14.2932C26.0985 13.8229 26.0851 13.3414 25.9787 12.8763C25.8724 12.4113 25.6753 11.9718 25.3986 11.5831C24.7743 10.8405 23.7054 10.4527 22.2297 10.4527H12.7703C11.2851 10.4527 10.2162 10.8405 9.58716 11.602C9.3138 11.9921 9.12004 12.4322 9.01697 12.8972C8.91389 13.3623 8.90354 13.8431 8.98648 14.3121V14.3689C9.36959 19.2405 7.94121 24.85 7.87973 25.0864L6.96216 24.85C6.96216 24.7932 8.40473 19.1743 8.04527 14.4446C7.94195 13.8428 7.96117 13.2265 8.10177 12.6324C8.24237 12.0383 8.50146 11.4787 8.86351 10.9871C9.68175 9.99387 11.0013 9.48779 12.7845 9.48779H22.2297C24.0128 9.48779 25.3324 9.99387 26.1507 10.9871C26.5136 11.4818 26.7724 12.0449 26.9114 12.6424C27.0504 13.2399 27.0667 13.8594 26.9595 14.4635C26.6 19.1932 28.0236 24.7932 28.0426 24.8689L27.125 25.0675Z" fill="black"/>
<path d="M22.7358 26.898H12.2642V9.97974H13.2101V25.952H21.7898V9.97974H22.7358V26.898Z" fill="black"/>
<path d="M12.7371 16.5161H22.2627V17.4621H12.7371V16.5161Z" fill="black"/>
<path d="M20.1819 10.4528H14.8184V7.49194H20.1819V10.4528ZM15.7643 9.50681H19.2359V8.43789H15.7643V9.50681Z" fill="black"/>
<path d="M21.1229 8.43772H13.8769C13.6371 8.43779 13.3999 8.38734 13.1809 8.28965C12.9619 8.19196 12.7659 8.04923 12.6057 7.87074C12.4455 7.69226 12.3247 7.48202 12.2512 7.25374C12.1776 7.02546 12.153 6.78425 12.1789 6.54583L12.5857 2.47353C12.6291 2.05292 12.8275 1.66353 13.1423 1.38115C13.457 1.09876 13.8656 0.943586 14.2884 0.945825H20.7114C21.1364 0.943925 21.5468 1.10108 21.8619 1.38639C22.177 1.67171 22.3739 2.06456 22.4141 2.48772L22.8208 6.55528C22.8467 6.79371 22.8221 7.03492 22.7486 7.2632C22.6751 7.49148 22.5543 7.70171 22.3941 7.8802C22.2339 8.05869 22.0379 8.20142 21.8189 8.29911C21.5998 8.3968 21.3627 8.44725 21.1229 8.44718V8.43772ZM14.2884 1.89177C14.0989 1.89083 13.9158 1.96059 13.775 2.08741C13.6342 2.21424 13.5457 2.38901 13.5269 2.57758L13.1202 6.64988C13.1081 6.7562 13.1187 6.86387 13.1513 6.96578C13.184 7.06769 13.2378 7.16153 13.3093 7.2411C13.3811 7.32038 13.4687 7.38367 13.5664 7.42686C13.6642 7.47005 13.77 7.49217 13.8769 7.49177H21.1229C21.2298 7.49217 21.3355 7.47005 21.4333 7.42686C21.5311 7.38367 21.6187 7.32038 21.6904 7.2411C21.762 7.16153 21.8158 7.06769 21.8484 6.96578C21.881 6.86387 21.8917 6.7562 21.8796 6.64988L21.4729 2.58231C21.4551 2.39289 21.3671 2.21696 21.2262 2.08916C21.0853 1.96136 20.9016 1.89094 20.7114 1.89177H14.2884Z" fill="black"/>
</svg>
