<svg width="19" height="23" viewBox="0 0 19 23" fill="none" xmlns="http://www.w3.org/2000/svg">
<path d="M9.5 12.8081C8.50258 12.8093 7.53559 12.4647 6.76369 11.833C5.9918 11.2014 5.46272 10.3217 5.26656 9.34373C5.25093 9.24072 5.25787 9.13553 5.28692 9.03547C5.31597 8.93541 5.36643 8.84287 5.4348 8.76424C5.50317 8.68562 5.58781 8.6228 5.68287 8.58013C5.77793 8.53747 5.88113 8.51599 5.98531 8.51717C6.15654 8.51468 6.32303 8.5734 6.4548 8.68277C6.58658 8.79215 6.67497 8.94497 6.70406 9.11373C6.83943 9.75983 7.19301 10.3397 7.70541 10.7558C8.21782 11.172 8.85784 11.3992 9.51797 11.3992C10.1781 11.3992 10.8181 11.172 11.3305 10.7558C11.8429 10.3397 12.1965 9.75983 12.3319 9.11373C12.361 8.94497 12.4494 8.79215 12.5811 8.68277C12.7129 8.5734 12.8794 8.51468 13.0506 8.51717C13.1548 8.51599 13.258 8.53747 13.3531 8.58013C13.4481 8.6228 13.5328 8.68562 13.6011 8.76424C13.6695 8.84287 13.72 8.93541 13.749 9.03547C13.7781 9.13553 13.785 9.24072 13.7694 9.34373C13.572 10.3278 13.0377 11.2121 12.2584 11.8445C11.479 12.4769 10.5036 12.8177 9.5 12.8081Z" fill="black"/>
<path d="M15.8969 22.2812H3.10313C2.81066 22.2816 2.52118 22.2225 2.25228 22.1074C1.98339 21.9924 1.74071 21.8238 1.53901 21.6121C1.33731 21.4003 1.1808 21.1497 1.07901 20.8755C0.97721 20.6013 0.932257 20.3093 0.946881 20.0172L1.52907 7.62592C1.55316 7.0704 1.79093 6.54566 2.19273 6.16128C2.59452 5.77689 3.12927 5.56259 3.68532 5.56311H15.3147C15.8707 5.56259 16.4055 5.77689 16.8073 6.16128C17.2091 6.54566 17.4468 7.0704 17.4709 7.62592L18.0531 20.0172C18.0678 20.3093 18.0228 20.6013 17.921 20.8755C17.8192 21.1497 17.6627 21.4003 17.461 21.6121C17.2593 21.8238 17.0166 21.9924 16.7477 22.1074C16.4788 22.2225 16.1893 22.2816 15.8969 22.2812ZM3.68532 7.0078C3.49469 7.0078 3.31188 7.08352 3.17708 7.21832C3.04229 7.35311 2.96657 7.53592 2.96657 7.72655L2.38438 20.0891C2.37951 20.1864 2.39449 20.2838 2.42842 20.3752C2.46235 20.4665 2.51452 20.5501 2.58176 20.6207C2.64899 20.6913 2.72988 20.7475 2.81952 20.7858C2.90915 20.8241 3.00564 20.8439 3.10313 20.8437H15.8969C15.9944 20.8439 16.0909 20.8241 16.1805 20.7858C16.2701 20.7475 16.351 20.6913 16.4183 20.6207C16.4855 20.5501 16.5377 20.4665 16.5716 20.3752C16.6055 20.2838 16.6205 20.1864 16.6156 20.0891L16.0334 7.6978C16.0334 7.50717 15.9577 7.32436 15.8229 7.18957C15.6881 7.05477 15.5053 6.97905 15.3147 6.97905L3.68532 7.0078Z" fill="black"/>
<path d="M13.8125 6.28906H12.375V5.03125C12.375 4.26875 12.0721 3.53748 11.5329 2.99832C10.9938 2.45915 10.2625 2.15625 9.5 2.15625C8.7375 2.15625 8.00623 2.45915 7.46707 2.99832C6.9279 3.53748 6.625 4.26875 6.625 5.03125V6.28906H5.1875V5.03125C5.1875 3.8875 5.64185 2.7906 6.4506 1.98185C7.25935 1.1731 8.35625 0.71875 9.5 0.71875C10.6437 0.71875 11.7406 1.1731 12.5494 1.98185C13.3581 2.7906 13.8125 3.8875 13.8125 5.03125V6.28906Z" fill="black"/>
</svg>
