<svg width="29" height="28" viewBox="0 0 29 28" fill="none" xmlns="http://www.w3.org/2000/svg">
<path d="M4.69025 12.0243C4.7377 12.0768 4.79569 12.1187 4.86044 12.1474C4.92518 12.176 4.99524 12.1907 5.06603 12.1905H16.1949C16.2654 12.1903 16.3351 12.1754 16.3995 12.1467C16.4639 12.118 16.5216 12.0761 16.5688 12.0238C16.6161 11.9715 16.6519 11.9098 16.6739 11.8429C16.6959 11.7759 16.7037 11.705 16.6968 11.6349L16.3499 8.10428C16.3499 8.09908 16.3499 8.09358 16.3499 8.08838L16.1042 5.59232C16.0633 5.16905 15.9245 4.7611 15.6988 4.40069C15.473 4.04029 15.1666 3.73731 14.8037 3.5157C14.7999 3.51252 14.7956 3.51021 14.7915 3.50732C14.7791 3.4998 14.7681 3.49055 14.7554 3.48304C14.7427 3.47552 14.7372 3.47465 14.7282 3.46945L14.7086 3.45962C14.2952 3.22764 13.8292 3.10562 13.3552 3.10523H7.90318C7.21789 3.10371 6.55668 3.35785 6.04882 3.81797C5.54097 4.27808 5.223 4.91108 5.15709 5.59319L5.02556 6.92664C5.02556 6.92924 5.02556 6.93184 5.02383 6.93444L4.79547 9.24694V9.25937L4.56133 11.6349C4.55431 11.7052 4.56216 11.7762 4.58437 11.8433C4.60659 11.9104 4.64266 11.972 4.69025 12.0243ZM14.4999 4.54447C14.8383 4.83672 15.0513 5.24793 15.0948 5.69292L15.3393 8.17365C15.3393 8.17972 15.3393 8.1855 15.3408 8.19129L15.6356 11.1787H13.3641L13.9079 5.69234C13.9493 5.24753 14.1615 4.83608 14.4999 4.54447ZM6.1636 5.6935C6.20521 5.2613 6.40657 4.86017 6.7283 4.56859C7.05003 4.27701 7.46898 4.11596 7.90318 4.11695H11.0959C10.9378 4.52418 10.8353 4.9508 10.7909 5.38536L10.6842 6.47859H6.08816L6.1636 5.6935ZM5.98641 7.49031H11.141C11.2665 7.49034 11.3875 7.4437 11.4805 7.35944C11.5735 7.27519 11.6319 7.15935 11.6442 7.03446L11.7974 5.48508C11.8451 5.00802 11.9814 4.54404 12.1992 4.11695H13.3555C13.4049 4.11695 13.4535 4.12273 13.5023 4.12678C13.1632 4.54662 12.9542 5.05643 12.9011 5.59348L12.3472 11.1787H11.2364L11.4159 9.34638C11.4228 9.2761 11.415 9.20515 11.3928 9.13809C11.3707 9.07103 11.3347 9.00936 11.2873 8.95704C11.2398 8.90473 11.1819 8.86293 11.1174 8.83435C11.0528 8.80577 10.9829 8.79103 10.9123 8.79109H5.85691L5.98641 7.49031ZM5.75834 9.80281H10.3544L10.2194 11.1787H5.62277L5.75834 9.80281Z" fill="black"/>
<path d="M24.8917 26.5401C24.9297 26.926 25.1095 27.2841 25.3963 27.5451C25.6831 27.806 26.0565 27.9513 26.4443 27.9527C26.496 27.9527 26.5487 27.9501 26.6013 27.9449C27.0143 27.9034 27.394 27.6999 27.6572 27.3789C27.9205 27.0579 28.0457 26.6457 28.0055 26.2325L25.9506 5.3859C25.8361 4.17923 25.2748 3.05893 24.3767 2.24493C23.4786 1.43093 22.3087 0.982032 21.0966 0.986365H15.6446C15.259 0.98691 14.8748 1.0329 14.4999 1.12338C14.1251 1.03287 13.7409 0.986877 13.3553 0.986365H7.90354C6.69148 0.98163 5.52146 1.43032 4.62337 2.24428C3.72527 3.05825 3.16402 4.17863 3.0499 5.38532L0.994661 26.2325C0.975026 26.4382 0.996144 26.6457 1.05681 26.8431C1.11747 27.0406 1.21648 27.2242 1.34818 27.3834C1.47988 27.5425 1.64167 27.6742 1.82431 27.7707C2.00694 27.8673 2.20682 27.9269 2.41251 27.9461C2.45934 27.9498 2.50617 27.953 2.553 27.953C2.94196 27.9546 3.31741 27.8104 3.60533 27.5488C3.89324 27.2873 4.07274 26.9274 4.10844 26.5401L5.31528 14.3093H9.91137L8.73489 26.2325C8.71518 26.4382 8.73624 26.6457 8.79687 26.8432C8.8575 27.0407 8.95651 27.2243 9.08822 27.3835C9.21993 27.5427 9.38176 27.6743 9.56443 27.7709C9.7471 27.8674 9.94702 27.9269 10.1527 27.9461C10.1996 27.9498 10.2464 27.953 10.2935 27.953C10.6826 27.954 11.058 27.8097 11.3462 27.5484C11.6345 27.287 11.8147 26.9274 11.8516 26.5401L13.0564 14.3093H15.9453L17.1492 26.5401C17.19 26.9534 17.3933 27.3335 17.7144 27.5969C18.0355 27.8603 18.448 27.9854 18.8613 27.9446C19.2746 27.9038 19.6548 27.7005 19.9182 27.3795C20.1816 27.0584 20.3067 26.6458 20.2659 26.2325L19.0888 14.3093H23.6849L24.8917 26.5401ZM10.8459 26.4401C10.8314 26.5767 10.7672 26.7032 10.6655 26.7956C10.5638 26.888 10.4318 26.9399 10.2944 26.9413C10.2747 26.9413 10.2554 26.9393 10.24 26.9381C10.0936 26.9236 9.95883 26.8515 9.8655 26.7376C9.77216 26.6238 9.72783 26.4776 9.74227 26.3311L10.9289 14.3093H12.04L10.8459 26.4401ZM19.2576 26.3319C19.2659 26.405 19.2597 26.4789 19.2391 26.5495C19.2186 26.6201 19.1842 26.6859 19.1381 26.7431C19.0919 26.8002 19.0348 26.8477 18.9701 26.8826C18.9054 26.9175 18.8344 26.9392 18.7613 26.9464C18.6881 26.9536 18.6143 26.9462 18.544 26.9247C18.4737 26.9031 18.4085 26.8677 18.352 26.8207C18.2955 26.7737 18.2489 26.7159 18.215 26.6507C18.181 26.5855 18.1604 26.5142 18.1543 26.4409L16.9055 13.754C16.8933 13.6289 16.8349 13.513 16.7418 13.4286C16.6487 13.3442 16.5276 13.2975 16.402 13.2975H4.85682C4.73135 13.2976 4.61039 13.3444 4.51744 13.4287C4.42449 13.513 4.36619 13.6288 4.35386 13.7537L3.10193 26.4435C3.0879 26.5797 3.02408 26.7059 2.92273 26.7979C2.82137 26.8899 2.6896 26.9413 2.55271 26.9422C2.53334 26.9422 2.51397 26.9401 2.49865 26.939C2.3522 26.9244 2.21753 26.8522 2.1242 26.7384C2.03088 26.6246 1.98653 26.4784 2.00089 26.3319L4.0567 5.48418C4.14742 4.52794 4.59234 3.64015 5.3041 2.99515C6.01585 2.35014 6.94302 1.99451 7.90354 1.99808H13.3553C13.6977 1.99769 14.0386 2.0425 14.3693 2.13134C15.1263 2.33619 15.8029 2.76681 16.3089 3.36585C16.815 3.96489 17.1266 4.70391 17.2021 5.48447L18.0265 13.8528L19.2576 26.3319ZM17.9042 4.11691H21.0966C21.5308 4.11592 21.9497 4.27692 22.2714 4.56844C22.5932 4.85996 22.7945 5.26102 22.8362 5.69317L23.3771 11.1787H18.781L18.2089 5.38503C18.1645 4.9506 18.0621 4.52408 17.9042 4.11691ZM18.9891 13.2975L18.8798 12.1904H23.9349C24.0055 12.1904 24.0753 12.1756 24.1399 12.147C24.2044 12.1184 24.2622 12.0766 24.3096 12.0243C24.357 11.972 24.3929 11.9103 24.4151 11.8433C24.4372 11.7763 24.4451 11.7054 24.4382 11.6351L23.843 5.59373C23.777 4.91167 23.459 4.27874 22.9512 3.81869C22.4434 3.35863 21.7822 3.10453 21.0969 3.10606H17.3755C17.0906 2.68451 16.7407 2.31083 16.3387 1.99895H21.0966C22.0572 1.99546 22.9845 2.35119 23.6962 2.99631C24.408 3.64142 24.8528 4.5293 24.9435 5.48562L26.999 26.3328C27.0134 26.4793 26.969 26.6256 26.8756 26.7394C26.7822 26.8532 26.6475 26.9253 26.501 26.9398C26.4292 26.9472 26.3566 26.9402 26.2876 26.9192C26.2186 26.8982 26.1544 26.8637 26.0989 26.8176C26.0422 26.7713 25.9953 26.7143 25.9609 26.6498C25.9265 26.5853 25.9052 26.5146 25.8983 26.4418L24.646 13.7537C24.6337 13.6288 24.5754 13.5129 24.4824 13.4286C24.3893 13.3443 24.2683 13.2976 24.1428 13.2975H18.9891Z" fill="black"/>
</svg>
