<svg viewBox="0 0 15 15" fill="none" xmlns="http://www.w3.org/2000/svg">
<g clip-path="url(#clip0_92_330)">
<path d="M12.8033 2.19668C11.3867 0.780147 9.50332 0 7.5 0C5.49668 0 3.61327 0.780147 2.19668 2.19668C0.780147 3.61327 0 5.49668 0 7.5C0 9.50332 0.780147 11.3867 2.19668 12.8033C3.61327 14.2199 5.49668 15 7.5 15C9.50332 15 11.3867 14.2199 12.8033 12.8033C14.2199 11.3867 15 9.50332 15 7.5C15 5.49668 14.2199 3.61327 12.8033 2.19668ZM12.4926 12.4926C11.159 13.8261 9.38596 14.5605 7.5 14.5605C5.61404 14.5605 3.841 13.8261 2.50743 12.4926C1.17387 11.159 0.439453 9.38596 0.439453 7.5C0.439453 5.61404 1.17387 3.841 2.50743 2.50743C3.841 1.17387 5.61404 0.439453 7.5 0.439453C9.38596 0.439453 11.159 1.17387 12.4926 2.50743C13.8261 3.841 14.5605 5.61404 14.5605 7.5C14.5605 9.38596 13.8261 11.159 12.4926 12.4926Z" fill="#000000"/>
<path d="M7.5 2.34839C7.37865 2.34839 7.28027 2.44677 7.28027 2.56812V3.50749C7.28027 3.62884 7.37865 3.72722 7.5 3.72722C7.62135 3.72722 7.71973 3.62887 7.71973 3.50752V2.56812C7.71973 2.44677 7.62135 2.34839 7.5 2.34839Z" fill="#000000"/>
<path d="M7.5 11.2727C7.37865 11.2727 7.28027 11.3711 7.28027 11.4924V12.4318C7.28027 12.5532 7.37865 12.6515 7.5 12.6515C7.62135 12.6515 7.71973 12.5532 7.71973 12.4318V11.4924C7.71973 11.3711 7.62135 11.2727 7.5 11.2727Z" fill="#000000"/>
<path d="M12.4318 7.28027H11.4924C11.3711 7.28027 11.2727 7.37865 11.2727 7.5C11.2727 7.62135 11.3711 7.71973 11.4924 7.71973H12.4318C12.5532 7.71973 12.6515 7.62135 12.6515 7.5C12.6515 7.37865 12.5532 7.28027 12.4318 7.28027Z" fill="#000000"/>
<path d="M3.50757 7.28027H2.56819C2.44684 7.28027 2.34846 7.37865 2.34846 7.5C2.34846 7.62135 2.44684 7.71973 2.56819 7.71973H3.50757C3.62891 7.71973 3.72729 7.62135 3.72729 7.5C3.72729 7.37865 3.62891 7.28027 3.50757 7.28027Z" fill="#000000"/>
<path d="M3.74558 5.07878L3.33882 4.84394C3.2337 4.78324 3.09935 4.81927 3.03867 4.92436C2.978 5.02945 3.01401 5.16383 3.11909 5.22451L3.52585 5.45935C3.56045 5.47933 3.59825 5.48882 3.63551 5.48882C3.71145 5.48882 3.78531 5.44939 3.826 5.37893C3.88667 5.27384 3.85067 5.13946 3.74558 5.07878Z" fill="#000000"/>
<path d="M11.8809 9.77556L11.4742 9.54072C11.3691 9.48001 11.2347 9.51605 11.174 9.62114C11.1133 9.72623 11.1493 9.86061 11.2544 9.92128L11.6612 10.1561C11.6958 10.1761 11.7336 10.1856 11.7708 10.1856C11.8468 10.1856 11.9206 10.1462 11.9613 10.0757C12.022 9.97062 11.986 9.83624 11.8809 9.77556Z" fill="#000000"/>
<path d="M10.0758 3.03876C9.97067 2.97806 9.83628 3.0141 9.77561 3.11918L9.54077 3.52594C9.48009 3.63103 9.5161 3.76541 9.62119 3.82609C9.65579 3.84607 9.69358 3.85556 9.73084 3.85556C9.80678 3.85556 9.88064 3.81613 9.92133 3.74567L10.1562 3.33891C10.2168 3.23382 10.1808 3.09944 10.0758 3.03876Z" fill="#000000"/>
<path d="M5.37883 11.174C5.27371 11.1133 5.13932 11.1493 5.07868 11.2544L4.84384 11.6612C4.78316 11.7663 4.81917 11.9007 4.92426 11.9613C4.95885 11.9813 4.99665 11.9908 5.03391 11.9908C5.10985 11.9908 5.18371 11.9514 5.2244 11.8809L5.45925 11.4742C5.51992 11.3691 5.48391 11.2347 5.37883 11.174Z" fill="#000000"/>
<path d="M11.9614 4.9241C11.9007 4.81901 11.7663 4.78301 11.6612 4.84368L11.2545 5.07853C11.1494 5.1392 11.1134 5.27358 11.174 5.37867C11.2147 5.44916 11.2886 5.48857 11.3645 5.48857C11.4018 5.48857 11.4396 5.47907 11.4742 5.45909L11.8809 5.22425C11.986 5.16358 12.022 5.02919 11.9614 4.9241Z" fill="#000000"/>
<path d="M3.826 9.62114C3.76533 9.51603 3.63094 9.48002 3.52585 9.54072L3.11909 9.77557C3.01401 9.83624 2.978 9.97063 3.03867 10.0757C3.07937 10.1462 3.15323 10.1856 3.22916 10.1856C3.26643 10.1856 3.30422 10.1761 3.33882 10.1561L3.74558 9.92129C3.85067 9.86065 3.88667 9.72626 3.826 9.62114Z" fill="#000000"/>
<path d="M5.45925 3.52595L5.2244 3.11919C5.16373 3.01407 5.02934 2.97807 4.92426 3.03877C4.81917 3.09944 4.78316 3.23383 4.84384 3.33892L5.07868 3.74567C5.11937 3.81616 5.19323 3.85557 5.26917 3.85557C5.30643 3.85557 5.34423 3.84608 5.37883 3.82609C5.48391 3.76542 5.51992 3.63104 5.45925 3.52595Z" fill="#000000"/>
<path d="M10.1562 11.6612L9.92133 11.2544C9.86069 11.1493 9.72627 11.1133 9.62119 11.174C9.5161 11.2347 9.48009 11.3691 9.54077 11.4742L9.77561 11.8809C9.8163 11.9514 9.89016 11.9908 9.9661 11.9908C10.0034 11.9908 10.0412 11.9813 10.0758 11.9613C10.1808 11.9007 10.2168 11.7663 10.1562 11.6612Z" fill="#000000"/>
<path d="M10.7702 6.99692C10.7518 6.877 10.6398 6.79471 10.5196 6.81317L8.11219 7.18354C7.99732 6.96223 7.76611 6.81062 7.50003 6.81062C7.38996 6.81062 7.2859 6.83669 7.1935 6.88278L4.83724 4.52652C4.75143 4.44071 4.6123 4.44071 4.52652 4.52652C4.44071 4.61233 4.44071 4.75146 4.52652 4.83724L6.88278 7.1935C6.83669 7.2859 6.81062 7.38996 6.81062 7.50003C6.81062 7.88019 7.1199 8.18945 7.50003 8.18945C7.83999 8.18945 8.12309 7.94203 8.17916 7.61786L10.5865 7.24752C10.7064 7.22904 10.7886 7.11686 10.7702 6.99692ZM7.5 7.74999C7.36216 7.74999 7.25004 7.63784 7.25004 7.50003C7.25004 7.36222 7.36219 7.25007 7.5 7.25007C7.63781 7.25007 7.74996 7.36222 7.74996 7.50003C7.74996 7.63784 7.63784 7.74999 7.5 7.74999Z" fill="#000000"/>
<path d="M11.4476 2.86356C10.2857 1.87227 8.80266 1.35738 7.27146 1.41415C5.7317 1.47108 4.2833 2.10286 3.1931 3.19306C2.10291 4.28325 1.47112 5.73166 1.41419 7.27142C1.35756 8.80256 1.87231 10.2857 2.8636 11.4476C2.90705 11.4985 2.96875 11.5247 3.03085 11.5247C3.0813 11.5247 3.13199 11.5075 3.17335 11.4722C3.26567 11.3934 3.27666 11.2547 3.19791 11.1624C2.27831 10.0845 1.80077 8.70846 1.85333 7.28765C1.90615 5.8591 2.49232 4.51531 3.50382 3.50378C4.51533 2.49225 5.85915 1.90611 7.28769 1.85328C8.70859 1.80075 10.0845 2.27826 11.1624 3.19786C11.2547 3.27661 11.3934 3.26563 11.4722 3.17331C11.5509 3.081 11.54 2.94231 11.4476 2.86356Z" fill="#000000"/>
<path d="M12.1364 3.55247C12.0577 3.46015 11.919 3.44914 11.8267 3.52792C11.7344 3.60667 11.7234 3.74536 11.8021 3.83767C12.7217 4.91556 13.1992 6.29164 13.1467 7.71242C13.0939 9.14097 12.5077 10.4848 11.4962 11.4963C10.4847 12.5078 9.14089 13.094 7.71235 13.1468C6.29168 13.1994 4.91549 12.7218 3.8376 11.8022C3.74532 11.7235 3.6066 11.7344 3.52785 11.8268C3.4491 11.9191 3.46008 12.0578 3.5524 12.1365C4.65651 13.0785 6.05063 13.5901 7.50044 13.5901C7.57632 13.5901 7.65244 13.5887 7.72861 13.5859C9.26836 13.529 10.7168 12.8972 11.807 11.807C12.8972 10.7168 13.5289 9.26841 13.5859 7.72865C13.6425 6.19754 13.1277 4.71438 12.1364 3.55247Z" fill="#000000"/>
</g>
<defs>
<clipPath id="clip0_92_330">
<rect width="15" height="15" fill="white"/>
</clipPath>
</defs>
</svg>
