<svg width="12" height="7" viewBox="0 0 12 7" fill="none" xmlns="http://www.w3.org/2000/svg">
<g clip-path="url(#clip0_612_380)">
<path d="M11.9998 0.823329C12.0037 0.662835 11.9523 0.505228 11.8526 0.372421C11.753 0.239613 11.61 0.138204 11.4437 0.082292C11.2774 0.0263803 11.096 0.0187442 10.9247 0.0604451C10.7534 0.102146 10.6008 0.191112 10.4879 0.314974L6.0138 5.04101L1.54126 0.314973C1.47167 0.229292 1.38332 0.157536 1.28167 0.104198C1.18001 0.0508611 1.06725 0.0170921 0.950507 0.00500553C0.833763 -0.007081 0.715543 0.00277567 0.603202 0.0339582C0.490862 0.0651407 0.386813 0.116977 0.297637 0.186221C0.20846 0.255466 0.136123 0.340627 0.085001 0.43637C0.0338793 0.532114 0.00516603 0.636379 0.000635114 0.742634C-0.00389484 0.848889 0.0158004 0.954846 0.0586185 1.05387C0.101436 1.15289 0.166384 1.24285 0.2494 1.31811L5.36536 6.72899C5.44549 6.81396 5.54495 6.8822 5.65704 6.92898C5.76914 6.97577 5.89114 7 6.01459 7C6.13803 7 6.26004 6.97577 6.37213 6.92898C6.48422 6.8822 6.58378 6.81396 6.66391 6.72899L11.7848 1.31811C11.919 1.18142 11.9952 1.0061 12 0.823329L11.9998 0.823329Z" fill="#B3B3B3"/>
</g>
<defs>
<clipPath id="clip0_612_380">
<rect width="12" height="7" fill="white"/>
</clipPath>
</defs>
</svg>
