<svg width="34" height="34" viewBox="0 0 34 34" fill="none" xmlns="http://www.w3.org/2000/svg">
<g clip-path="url(#clip0_211_101)">
<path d="M4.53325 27.7666C4.19702 27.7666 3.86835 27.8663 3.58878 28.0531C3.30922 28.2399 3.09133 28.5054 2.96266 28.816C2.83399 29.1267 2.80032 29.4685 2.86592 29.7983C2.93151 30.128 3.09342 30.4309 3.33117 30.6687C3.56892 30.9064 3.87183 31.0683 4.2016 31.1339C4.53137 31.1995 4.87318 31.1659 5.18381 31.0372C5.49445 30.9085 5.75995 30.6906 5.94675 30.4111C6.13355 30.1315 6.23325 29.8028 6.23325 29.4666C6.23325 29.0157 6.05415 28.5833 5.73533 28.2645C5.41652 27.9457 4.98412 27.7666 4.53325 27.7666ZM4.53325 30.0333C4.42118 30.0333 4.31162 30 4.21843 29.9378C4.12524 29.8755 4.05261 29.787 4.00972 29.6835C3.96683 29.5799 3.95561 29.466 3.97747 29.356C3.99934 29.2461 4.05331 29.1452 4.13256 29.0659C4.21181 28.9867 4.31278 28.9327 4.4227 28.9108C4.53262 28.889 4.64656 28.9002 4.75011 28.9431C4.85365 28.986 4.94215 29.0586 5.00442 29.1518C5.06668 29.245 5.09992 29.3545 5.09992 29.4666C5.09992 29.6169 5.04022 29.761 4.93395 29.8673C4.82768 29.9736 4.68354 30.0333 4.53325 30.0333Z" fill="black"/>
<path d="M29.4666 27.7666C29.1304 27.7666 28.8017 27.8663 28.5221 28.0531C28.2426 28.2399 28.0247 28.5054 27.896 28.816C27.7673 29.1267 27.7337 29.4685 27.7993 29.7983C27.8649 30.128 28.0268 30.4309 28.2645 30.6687C28.5023 30.9064 28.8052 31.0683 29.1349 31.1339C29.4647 31.1995 29.8065 31.1659 30.1172 31.0372C30.4278 30.9085 30.6933 30.6906 30.8801 30.4111C31.0669 30.1315 31.1666 29.8028 31.1666 29.4666C31.1666 29.0157 30.9875 28.5833 30.6687 28.2645C30.3499 27.9457 29.9175 27.7666 29.4666 27.7666ZM29.4666 30.0333C29.3545 30.0333 29.245 30 29.1518 29.9378C29.0586 29.8755 28.986 29.787 28.9431 29.6835C28.9002 29.5799 28.889 29.466 28.9108 29.356C28.9327 29.2461 28.9867 29.1452 29.0659 29.0659C29.1452 28.9867 29.2461 28.9327 29.3561 28.9108C29.466 28.889 29.5799 28.9002 29.6835 28.9431C29.787 28.986 29.8755 29.0586 29.9378 29.1518C30 29.245 30.0333 29.3545 30.0333 29.4666C30.0333 29.6169 29.9736 29.761 29.8673 29.8673C29.761 29.9736 29.6169 30.0333 29.4666 30.0333Z" fill="black"/>
<path d="M31.1667 14.1666C31.6175 14.1666 32.0499 13.9875 32.3688 13.6687C32.6876 13.3499 32.8667 12.9175 32.8667 12.4666V8.96407C33.1034 8.88331 33.3183 8.74891 33.4945 8.57137C33.6555 8.4149 33.7833 8.22755 33.8701 8.02054C33.957 7.81353 34.0011 7.59112 34 7.36663C34 6.91577 33.8209 6.48336 33.5021 6.16455C33.1833 5.84574 32.7509 5.66663 32.3 5.66663H25.2308L24.7701 4.02727C24.5331 3.19597 24.0323 2.46423 23.3432 1.94227C22.6541 1.4203 21.8141 1.13639 20.9497 1.1333H17.5667C17.1158 1.1333 16.6834 1.31241 16.3646 1.63122C16.0458 1.95003 15.8667 2.38243 15.8667 2.8333C15.8667 3.28417 16.0458 3.71657 16.3646 4.03538C16.6834 4.35419 17.1158 4.5333 17.5667 4.5333H20.9497C21.0729 4.53393 21.1925 4.57472 21.2905 4.64946C21.3885 4.72421 21.4594 4.82885 21.4925 4.94753L25.5227 19.2666H25.5C25.0491 19.2666 24.6167 19.4457 24.2979 19.7646C23.9791 20.0834 23.8 20.5158 23.8 20.9666V25.7119C23.3821 26.3407 23.0727 27.0353 22.8848 27.7666H15.8667V20.9666H16.4333C16.7339 20.9666 17.0222 20.8472 17.2347 20.6347C17.4473 20.4221 17.5667 20.1339 17.5667 19.8333V19.2666C17.5658 18.5155 17.267 17.7953 16.7358 17.2642C16.2047 16.733 15.4845 16.4342 14.7333 16.4333H14.1667V14.1666H15.3C15.7509 14.1666 16.1833 13.9875 16.5021 13.6687C16.8209 13.3499 17 12.9175 17 12.4666C17 12.0158 16.8209 11.5834 16.5021 11.2646C16.1833 10.9457 15.7509 10.7666 15.3 10.7666H5.18217L4.23697 7.17623C4.10355 6.67414 3.78252 6.24239 3.34012 5.97003C2.89771 5.69768 2.36765 5.60548 1.85926 5.71247C1.35087 5.81945 0.902925 6.11745 0.607803 6.54501C0.312681 6.97257 0.192891 7.49708 0.273139 8.01037L1.70001 17.0442V19.8333C1.7006 20.0314 1.75327 20.2258 1.85273 20.397C1.9522 20.5683 2.09495 20.7104 2.26667 20.8091V23.0571C1.73245 23.2439 1.22392 23.4973 0.753105 23.8113C0.520737 23.9671 0.330426 24.1779 0.199053 24.425C0.0676811 24.672 -0.000690143 24.9476 5.25194e-06 25.2274V28.9C0.00263857 28.9446 0.0108238 28.9888 0.0243719 29.0314C0.00816967 29.1759 3.48237e-05 29.3212 5.25194e-06 29.4666C0.00168565 30.5174 0.368317 31.5349 1.03721 32.3453C1.7061 33.1556 2.63572 33.7084 3.66711 33.9092C4.69849 34.11 5.7676 33.9462 6.69162 33.446C7.61564 32.9457 8.33719 32.14 8.73291 31.1666H25.2671C25.6628 32.14 26.3844 32.9457 27.3084 33.446C28.2324 33.9462 29.3015 34.11 30.3329 33.9092C31.3643 33.7084 32.2939 33.1556 32.9628 32.3453C33.6317 31.5349 33.9983 30.5174 34 29.4666V25.5413C33.9997 25.1428 33.8949 24.7514 33.6961 24.406C33.4972 24.0607 33.2112 23.7735 32.8667 23.5733C32.3971 23.3055 31.8972 23.0951 31.3775 22.9466L30.2793 20.311C30.1733 20.0577 30.0074 19.8339 29.7957 19.659C29.5841 19.4841 29.3331 19.3632 29.0643 19.3069L27.6188 14.1666H31.1667ZM31.1667 13.0333H27.3003L26.1862 9.06664H31.7333V12.4666C31.7333 12.6169 31.6736 12.7611 31.5674 12.8673C31.4611 12.9736 31.317 13.0333 31.1667 13.0333ZM32.3 6.79997C32.4503 6.79997 32.5944 6.85967 32.7007 6.96594C32.807 7.07221 32.8667 7.21635 32.8667 7.36663C32.8669 7.44217 32.8517 7.51696 32.8218 7.58636C32.792 7.65576 32.7482 7.7183 32.6933 7.7701C32.6421 7.82243 32.5809 7.86386 32.5133 7.89191C32.4457 7.91996 32.3732 7.93404 32.3 7.9333H25.8678L25.5493 6.79997H32.3ZM22.5834 4.64153C22.4835 4.28487 22.2699 3.97058 21.975 3.74647C21.6801 3.52236 21.3201 3.40069 20.9497 3.39997H17.5667C17.4164 3.39997 17.2722 3.34027 17.166 3.23399C17.0597 3.12772 17 2.98359 17 2.8333C17 2.68301 17.0597 2.53888 17.166 2.43261C17.2722 2.32634 17.4164 2.26663 17.5667 2.26663H20.9497C21.5673 2.26909 22.1675 2.47211 22.6598 2.84514C23.1521 3.21817 23.5099 3.74101 23.6793 4.33497L27.8743 19.2666H26.6996L22.5834 4.64153ZM16.4333 19.2666V19.8333H2.83334V17.5666H14.7333C15.1842 17.5666 15.6166 17.7457 15.9354 18.0646C16.2542 18.3834 16.4333 18.8158 16.4333 19.2666ZM6.67024 16.4333L6.07297 14.1666H10.7667V16.4333H6.67024ZM13.0333 16.4333H11.9V14.1666H13.0333V16.4333ZM15.8667 12.4666C15.8667 12.6169 15.807 12.7611 15.7007 12.8673C15.5944 12.9736 15.4503 13.0333 15.3 13.0333H5.10001C4.94972 13.0333 4.80558 12.9736 4.69931 12.8673C4.59304 12.7611 4.53334 12.6169 4.53334 12.4666C4.53334 12.3163 4.59304 12.1722 4.69931 12.0659C4.80558 11.9597 4.94972 11.9 5.10001 11.9H15.3C15.4503 11.9 15.5944 11.9597 15.7007 12.0659C15.807 12.1722 15.8667 12.3163 15.8667 12.4666ZM1.59461 7.1122C1.70096 6.98849 1.83906 6.89615 1.99402 6.84513C2.14898 6.79411 2.31492 6.78634 2.47397 6.82266C2.63302 6.85898 2.77914 6.93802 2.89659 7.05125C3.01404 7.16448 3.09836 7.30762 3.14047 7.46523L4.09757 11.1004C3.82199 11.3002 3.61319 11.5785 3.49853 11.899C3.38387 12.2195 3.3687 12.5672 3.45501 12.8964C3.54132 13.2257 3.72508 13.5212 3.98222 13.7442C4.23935 13.9672 4.55786 14.1073 4.89601 14.1462L5.49667 16.4333H2.75061L1.39061 7.833C1.36945 7.70525 1.37676 7.5744 1.41202 7.44979C1.44729 7.32519 1.50963 7.20992 1.59461 7.1122ZM3.40001 20.9666H14.7333V27.7666H11.1152C10.6928 26.1161 9.6645 24.685 8.23494 23.7581C6.80538 22.8311 5.07929 22.4763 3.40001 22.7641V20.9666ZM1.38324 24.7531C2.11503 24.2644 2.9506 23.9528 3.82372 23.843C4.69685 23.7333 5.58354 23.8284 6.41353 24.1208C7.24351 24.4132 7.99399 24.8949 8.60549 25.5277C9.21698 26.1606 9.67269 26.9271 9.93651 27.7666H8.72214C8.38936 26.9282 7.81176 26.2095 7.06459 25.7041C6.31743 25.1987 5.43537 24.9301 4.53334 24.9333C3.88961 24.9351 3.2536 25.0736 2.66744 25.3397C2.08129 25.6058 1.55837 25.9934 1.13334 26.4769V25.2302C1.13214 25.1362 1.15435 25.0434 1.19798 24.9601C1.2416 24.8768 1.30527 24.8057 1.38324 24.7531ZM4.53334 32.8666C3.63188 32.8657 2.7676 32.5072 2.13017 31.8698C1.49274 31.2324 1.13424 30.3681 1.13334 29.4666C1.13132 29.3044 1.1448 29.1424 1.17357 28.9827C1.2835 28.2158 1.65224 27.5095 2.21866 26.981C2.78508 26.4524 3.51515 26.1334 4.2878 26.0767C5.06045 26.02 5.82926 26.2291 6.46676 26.6693C7.10425 27.1095 7.57213 27.7544 7.79281 28.4971C7.88708 28.8116 7.93443 29.1383 7.93334 29.4666C7.93244 30.3681 7.57394 31.2324 6.93651 31.8698C6.29908 32.5072 5.4348 32.8657 4.53334 32.8666ZM9.02757 30.0333C9.08084 29.6574 9.08084 29.2759 9.02757 28.9H24.9724C24.9203 29.2759 24.9203 29.6573 24.9724 30.0333H9.02757ZM29.4667 32.8666C28.7942 32.8666 28.1369 32.6672 27.5777 32.2936C27.0186 31.92 26.5828 31.389 26.3255 30.7678C26.0681 30.1465 26.0008 29.4629 26.132 28.8033C26.2632 28.1438 26.587 27.538 27.0625 27.0625C27.538 26.587 28.1438 26.2632 28.8034 26.132C29.4629 26.0008 30.1465 26.0681 30.7678 26.3254C31.3891 26.5828 31.9201 27.0186 32.2937 27.5777C32.6673 28.1368 32.8667 28.7942 32.8667 29.4666C32.8658 30.3681 32.5073 31.2324 31.8698 31.8698C31.2324 32.5072 30.3681 32.8657 29.4667 32.8666ZM32.8667 25.5413V26.478C32.3576 25.8962 31.7079 25.4546 30.9796 25.1954C30.2513 24.9361 29.4687 24.8678 28.7065 24.9971C27.9443 25.1263 27.228 25.4488 26.6259 25.9336C26.0237 26.4185 25.5559 27.0496 25.2671 27.7666H24.0635C24.3182 26.9574 24.7513 26.2156 25.3308 25.596C25.9104 24.9764 26.6215 24.4948 27.412 24.1866C28.2024 23.8784 29.0519 23.7516 29.8979 23.8154C30.7439 23.8792 31.5647 24.1321 32.3 24.5553C32.4725 24.6557 32.6156 24.7996 32.715 24.9726C32.8145 25.1457 32.8668 25.3418 32.8667 25.5413ZM30.0475 22.7046C29.8543 22.6882 29.6616 22.6666 29.4667 22.6666C27.7933 22.6668 26.1789 23.2849 24.9333 24.4023V20.9666C24.9333 20.8163 24.993 20.6722 25.0993 20.5659C25.2056 20.4597 25.3497 20.4 25.5 20.4H28.713C28.824 20.4012 28.9322 20.4348 29.0244 20.4966C29.1166 20.5584 29.1888 20.6457 29.2321 20.7479L30.0475 22.7046Z" fill="black"/>
</g>
<defs>
<clipPath id="clip0_211_101">
<rect width="34" height="34" fill="white"/>
</clipPath>
</defs>
</svg>
