<svg width="33" height="33" viewBox="0 0 33 33" fill="none" xmlns="http://www.w3.org/2000/svg">
<g clip-path="url(#clip0_211_285)">
<path d="M4.83398 11.3888H1.49531C1.0957 11.3888 0.721875 11.2341 0.438281 10.9505C0.154688 10.6669 0 10.2931 0 9.89351C0 9.06851 0.670313 8.39819 1.49531 8.39819H5.00156C5.26582 8.39819 5.48496 8.61733 5.48496 8.88159C5.48496 9.14585 5.26582 9.36499 5.00156 9.36499H1.49531C1.20527 9.36499 0.966797 9.60347 0.966797 9.89351C0.966797 10.0353 1.0248 10.1707 1.12148 10.2673C1.21816 10.364 1.35352 10.422 1.49531 10.422H4.83398C5.09824 10.422 5.31738 10.6412 5.31738 10.9054C5.31738 11.1697 5.09824 11.3888 4.83398 11.3888Z" fill="black"/>
<path d="M21.2373 19.4776C20.973 19.4776 20.7539 19.2584 20.7539 18.9942V15.9456C20.7539 15.6813 20.973 15.4622 21.2373 15.4622C21.5016 15.4622 21.7207 15.6813 21.7207 15.9456V18.9942C21.7207 19.2584 21.508 19.4776 21.2373 19.4776Z" fill="black"/>
<path d="M23.5513 19.4778C23.287 19.4778 23.0679 19.2586 23.0679 18.9944V17.2864C23.0679 17.0221 23.287 16.803 23.5513 16.803C23.8155 16.803 24.0347 17.0221 24.0347 17.2864V18.9944C24.0347 19.2586 23.8155 19.4778 23.5513 19.4778Z" fill="black"/>
<path d="M3.93803 21.695C3.92514 21.695 3.91225 21.695 3.89291 21.695C3.62866 21.6692 3.42885 21.4372 3.45463 21.1729L4.59545 7.99224C4.75659 6.09732 6.0392 4.49888 7.85678 3.92525L8.15327 3.83501C8.96538 3.5772 9.83549 3.69966 10.5445 4.17017C10.7701 4.31841 10.8281 4.61489 10.6798 4.84048C10.5316 5.05962 10.2351 5.12407 10.0095 4.97583C9.54545 4.66646 8.97827 4.58911 8.44331 4.75669L8.14682 4.84692C6.70307 5.30454 5.69116 6.56782 5.56225 8.07603L4.42143 21.2502C4.40209 21.5016 4.1894 21.695 3.93803 21.695Z" fill="black"/>
<path d="M7.89551 22.0688C7.63125 22.0688 7.41211 21.8496 7.41211 21.5854V10.3834C7.41211 9.26194 7.7666 8.19847 8.43691 7.29612C8.7334 6.89651 9.08789 6.54202 9.4875 6.24554C9.70019 6.0844 10.0031 6.12952 10.1643 6.34222C10.3254 6.55491 10.2803 6.85784 10.0676 7.01897C9.74531 7.2639 9.45527 7.54749 9.2168 7.8762C8.67539 8.60452 8.38535 9.47464 8.38535 10.3834V21.5854C8.37891 21.8496 8.15977 22.0688 7.89551 22.0688Z" fill="black"/>
<path d="M16.5967 28.166C16.3324 28.166 16.1133 27.9468 16.1133 27.6826C16.1133 27.6632 16.1133 27.6439 16.1133 27.631L16.7449 21.9849C16.9705 20.0062 18.6334 18.5173 20.625 18.5173H30.2736C31.0213 18.5173 31.6336 19.1296 31.6336 19.8773V21.9462C31.6336 22.2105 31.4145 22.4296 31.1502 22.4296C30.8859 22.4296 30.6668 22.2105 30.6668 21.9462V19.8773C30.6668 19.6646 30.4928 19.4841 30.2736 19.4841H20.6314C19.1361 19.4841 17.8793 20.6056 17.7117 22.0945L17.0801 27.7341C17.0543 27.9726 16.848 28.166 16.5967 28.166Z" fill="black"/>
<path d="M28.6366 15.3721H26.6643C26.4 15.3721 26.1809 15.153 26.1809 14.8887C26.1809 14.6245 26.4 14.4053 26.6643 14.4053H28.6366C28.8235 14.4053 28.9846 14.2635 29.0104 14.0766L29.3713 11.4276C29.41 11.1633 29.6549 10.9764 29.9127 11.0151C30.177 11.0538 30.3639 11.2922 30.3252 11.5565L29.9643 14.2055C29.8741 14.8694 29.3069 15.3721 28.6366 15.3721Z" fill="black"/>
<path d="M27.8825 13.6448H26.6643C26.4 13.6448 26.1809 13.4256 26.1809 13.1614C26.1809 12.8971 26.4 12.678 26.6643 12.678H27.4635L27.6633 11.202C27.702 10.9377 27.9405 10.7508 28.2047 10.7895C28.469 10.8282 28.6559 11.0666 28.6172 11.3309L28.3594 13.2258C28.3272 13.4707 28.1274 13.6448 27.8825 13.6448Z" fill="black"/>
<path d="M21.2566 28.166H15.6492C15.3849 28.166 15.1658 27.9468 15.1658 27.6826C15.1658 27.4183 15.3849 27.1992 15.6492 27.1992H20.7861C21.0375 23.506 24.1183 20.5798 27.8695 20.5798C29.3841 20.5798 30.8279 21.0503 32.046 21.9398C32.7035 22.4167 32.8646 23.3191 32.4134 23.9958L31.7947 24.9175C31.6464 25.1367 31.3435 25.2011 31.1244 25.0529C30.9052 24.9046 30.8408 24.6017 30.989 24.3826L31.6078 23.4609C31.7689 23.216 31.7109 22.8937 31.4789 22.7197C30.4283 21.9527 29.1779 21.5466 27.8695 21.5466C24.4857 21.5466 21.7335 24.2988 21.7335 27.6826C21.7335 27.9468 21.5208 28.166 21.2566 28.166Z" fill="black"/>
<path d="M13.3934 28.166H11.9432C11.6789 28.166 11.4598 27.9468 11.4598 27.6826C11.4598 24.2988 8.70761 21.5466 5.32382 21.5466C4.01542 21.5466 2.77148 21.9527 1.71444 22.7197C1.48241 22.8937 1.42441 23.216 1.58554 23.4609L2.20429 24.3826C2.35253 24.6017 2.29452 24.9046 2.06894 25.0529C1.8498 25.2011 1.54687 25.1431 1.39862 24.9175L0.779874 23.9958C0.328703 23.3191 0.489835 22.4167 1.14726 21.9398C2.36542 21.0503 3.81562 20.5798 5.32382 20.5798C9.07499 20.5798 12.1559 23.506 12.4072 27.1992H13.3934C13.6576 27.1992 13.8767 27.4183 13.8767 27.6826C13.8767 27.9468 13.6576 28.166 13.3934 28.166Z" fill="black"/>
<path d="M23.8026 30.4153H9.39087C9.12661 30.4153 8.90747 30.1961 8.90747 29.9319C8.90747 29.6676 9.12661 29.4485 9.39087 29.4485H23.8026C24.0668 29.4485 24.286 29.6676 24.286 29.9319C24.286 30.1961 24.0733 30.4153 23.8026 30.4153Z" fill="black"/>
<path d="M27.8695 32.8129C25.04 32.8129 22.739 30.512 22.739 27.6825C22.739 24.853 25.04 22.552 27.8695 22.552C30.699 22.552 33 24.853 33 27.6825C33 30.512 30.699 32.8129 27.8695 32.8129ZM27.8695 23.5188C25.575 23.5188 23.7058 25.3879 23.7058 27.6825C23.7058 29.977 25.575 31.8461 27.8695 31.8461C30.164 31.8461 32.0332 29.977 32.0332 27.6825C32.0332 25.3879 30.164 23.5188 27.8695 23.5188Z" fill="black"/>
<path d="M27.8695 30.4153C26.3613 30.4153 25.1367 29.1907 25.1367 27.6825C25.1367 26.1743 26.3613 24.9497 27.8695 24.9497C29.3777 24.9497 30.6023 26.1743 30.6023 27.6825C30.6023 29.1907 29.3777 30.4153 27.8695 30.4153ZM27.8695 25.9165C26.8963 25.9165 26.1035 26.7093 26.1035 27.6825C26.1035 28.6558 26.8963 29.4485 27.8695 29.4485C28.8428 29.4485 29.6355 28.6558 29.6355 27.6825C29.6355 26.7093 28.8428 25.9165 27.8695 25.9165Z" fill="black"/>
<path d="M5.32383 32.8129C2.49434 32.8129 0.193359 30.512 0.193359 27.6825C0.193359 24.853 2.49434 22.552 5.32383 22.552C8.15332 22.552 10.4543 24.853 10.4543 27.6825C10.4543 30.512 8.15332 32.8129 5.32383 32.8129ZM5.32383 23.5188C3.0293 23.5188 1.16016 25.3879 1.16016 27.6825C1.16016 29.977 3.0293 31.8461 5.32383 31.8461C7.61836 31.8461 9.4875 29.977 9.4875 27.6825C9.4875 25.3879 7.61836 23.5188 5.32383 23.5188Z" fill="black"/>
<path d="M5.32388 30.4153C3.81567 30.4153 2.59106 29.1907 2.59106 27.6825C2.59106 26.1743 3.81567 24.9497 5.32388 24.9497C6.83208 24.9497 8.05669 26.1743 8.05669 27.6825C8.05669 29.1907 6.83208 30.4153 5.32388 30.4153ZM5.32388 25.9165C4.35063 25.9165 3.55786 26.7093 3.55786 27.6825C3.55786 28.6558 4.35063 29.4485 5.32388 29.4485C6.29712 29.4485 7.08989 28.6558 7.08989 27.6825C7.08989 26.7093 6.29712 25.9165 5.32388 25.9165Z" fill="black"/>
<path d="M29.6937 11.9882C29.597 11.9882 29.5003 11.9818 29.4101 11.9625L28.1855 11.7691C27.2122 11.6144 26.5484 10.6992 26.703 9.72594L27.9921 1.68863C28.1468 0.715392 29.062 0.0515243 30.0353 0.206212L31.2599 0.399571C32.2331 0.554259 32.897 1.46949 32.7423 2.44274L32.2009 5.80074C32.1558 6.065 31.9109 6.24547 31.6466 6.20035C31.3823 6.15523 31.2019 5.91031 31.247 5.64606L31.7819 2.28805C31.8528 1.84332 31.5499 1.42438 31.1052 1.35348L29.8806 1.16012C29.4359 1.08922 29.0169 1.39215 28.946 1.83688L27.6569 9.87418C27.586 10.3189 27.889 10.7379 28.3337 10.8088L29.5583 11.0021C29.771 11.0343 29.9901 10.9828 30.1642 10.8539C30.3382 10.725 30.4607 10.538 30.4929 10.3189L30.886 7.8568C30.9312 7.59254 31.1761 7.41207 31.4403 7.45719C31.7046 7.50231 31.8851 7.74723 31.84 8.01149L31.4468 10.4736C31.3694 10.9441 31.1181 11.3566 30.7314 11.6338C30.4284 11.8722 30.0675 11.9882 29.6937 11.9882Z" fill="black"/>
<path d="M22.6296 16.4291H17.2478C16.2616 16.4291 15.4624 15.6298 15.4624 14.6437V13.4062C15.4624 12.4201 16.2616 11.6208 17.2478 11.6208H22.6296C22.8938 11.6208 23.113 11.84 23.113 12.1042C23.113 12.3685 22.8938 12.5876 22.6296 12.5876H17.2478C16.7966 12.5876 16.4292 12.955 16.4292 13.4062V14.6437C16.4292 15.0949 16.7966 15.4623 17.2478 15.4623H22.6296C22.8938 15.4623 23.113 15.6814 23.113 15.9457C23.113 16.2099 22.9003 16.4291 22.6296 16.4291Z" fill="black"/>
<path d="M25.3881 16.429H24.634C24.3698 16.429 24.1506 16.2098 24.1506 15.9456C24.1506 15.6813 24.3698 15.4622 24.634 15.4622H25.3881C25.7813 15.4622 26.1165 15.185 26.1938 14.7983C26.2067 14.7467 26.2067 14.6952 26.2067 14.6436V13.4061C26.2067 13.3545 26.2002 13.303 26.1938 13.2579C26.1229 12.8711 25.7813 12.594 25.3881 12.594H24.634C24.3698 12.594 24.1506 12.3749 24.1506 12.1106C24.1506 11.8463 24.3698 11.6272 24.634 11.6272H25.3881C26.2454 11.6272 26.9866 12.2395 27.1413 13.0774C27.1606 13.1805 27.1735 13.2965 27.1735 13.4061V14.6436C27.1735 14.7532 27.1606 14.8692 27.1413 14.9788C26.9801 15.8167 26.2454 16.429 25.3881 16.429Z" fill="black"/>
<path d="M24.9497 9.36504H19.2972C18.5946 9.36504 18.021 8.79141 18.021 8.08887V7.23809C18.021 6.53555 18.5946 5.96191 19.2972 5.96191H24.9497C25.6522 5.96191 26.2259 6.53555 26.2259 7.23809V8.08887C26.2259 8.79141 25.6522 9.36504 24.9497 9.36504ZM19.2972 6.92871C19.1296 6.92871 18.9878 7.07051 18.9878 7.23809V8.08887C18.9878 8.25645 19.1296 8.39824 19.2972 8.39824H24.9497C25.1173 8.39824 25.2591 8.25645 25.2591 8.08887V7.23809C25.2591 7.07051 25.1173 6.92871 24.9497 6.92871H19.2972Z" fill="black"/>
<path d="M23.6284 17.7697C22.8099 17.7697 22.146 17.1058 22.146 16.2873V8.88159C22.146 8.61733 22.3651 8.39819 22.6294 8.39819H24.6274C24.8917 8.39819 25.1108 8.61733 25.1108 8.88159V16.2873C25.1173 17.1058 24.447 17.7697 23.6284 17.7697ZM23.1128 9.36499V16.2873C23.1128 16.5709 23.3448 16.8029 23.6284 16.8029C23.912 16.8029 24.144 16.5709 24.144 16.2873V9.36499H23.1128Z" fill="black"/>
<path d="M4.35698 16.8803H2.90034C1.86265 16.8803 1.01831 16.0359 1.01831 14.9982V14.3408C1.01831 14.0766 1.23745 13.8574 1.50171 13.8574C1.76597 13.8574 1.98511 14.0766 1.98511 14.3408V14.9982C1.98511 15.501 2.39761 15.9135 2.90034 15.9135H4.35698C4.62124 15.9135 4.84038 16.1326 4.84038 16.3969C4.84038 16.6611 4.62124 16.8803 4.35698 16.8803Z" fill="black"/>
<path d="M1.49536 12.5683C1.2311 12.5683 1.01196 12.3492 1.01196 12.0849V10.9119C1.01196 10.6476 1.2311 10.4285 1.49536 10.4285C1.75962 10.4285 1.97876 10.6476 1.97876 10.9119V12.0849C1.97876 12.3492 1.76606 12.5683 1.49536 12.5683Z" fill="black"/>
<path d="M11.2343 8.01152C10.0677 8.01152 9.11377 7.05762 9.11377 5.89102C9.11377 4.72441 10.0677 3.77051 11.2343 3.77051C12.4009 3.77051 13.3548 4.72441 13.3548 5.89102C13.3548 7.05762 12.4009 8.01152 11.2343 8.01152ZM11.2343 4.74375C10.5962 4.74375 10.0806 5.25937 10.0806 5.89746C10.0806 6.53555 10.5962 7.05117 11.2343 7.05117C11.8724 7.05117 12.388 6.53555 12.388 5.89746C12.388 5.25937 11.8659 4.74375 11.2343 4.74375Z" fill="black"/>
</g>
<defs>
<clipPath id="clip0_211_285">
<rect width="33" height="33" fill="white"/>
</clipPath>
</defs>
</svg>
