<svg width="23" height="29" viewBox="0 0 23 29" fill="none" xmlns="http://www.w3.org/2000/svg">
<path fill-rule="evenodd" clip-rule="evenodd" d="M4.4316 0H14.1272L22.3446 8.56522V25.2246C22.3446 27.3116 20.6562 29 18.5765 29H4.4316C2.34465 29 0.65625 27.3116 0.65625 25.2246V3.77535C0.656213 1.6884 2.34461 0 4.4316 0Z" fill="#E5252A"/>
<path opacity="0.302" fill-rule="evenodd" clip-rule="evenodd" d="M14.1201 0V8.5H22.3448L14.1201 0Z" fill="white"/>
<path d="M4.85156 21.6379V16.3408H7.10519C7.66317 16.3408 8.10521 16.493 8.43854 16.8046C8.77186 17.1089 8.93855 17.522 8.93855 18.0365C8.93855 18.551 8.77186 18.964 8.43854 19.2684C8.10521 19.58 7.66317 19.7321 7.10519 19.7321H6.20664V21.6379H4.85156ZM6.20664 18.58H6.95302C7.15591 18.58 7.31533 18.5365 7.42405 18.4351C7.53272 18.3409 7.59073 18.2104 7.59073 18.0365C7.59073 17.8626 7.53276 17.7322 7.42405 17.638C7.31537 17.5365 7.15594 17.493 6.95302 17.493H6.20664V18.58ZM9.49649 21.6379V16.3408H11.3733C11.7429 16.3408 12.0907 16.3915 12.4168 16.5002C12.7428 16.6089 13.04 16.7611 13.3008 16.9713C13.5617 17.1742 13.7718 17.4495 13.924 17.7974C14.0689 18.1452 14.1487 18.5437 14.1487 18.993C14.1487 19.435 14.069 19.8336 13.924 20.1814C13.7718 20.5292 13.5617 20.8046 13.3008 21.0075C13.0399 21.2176 12.7428 21.3698 12.4168 21.4785C12.0907 21.5872 11.7429 21.6379 11.3733 21.6379H9.49649ZM10.8226 20.4858H11.2139C11.424 20.4858 11.6197 20.464 11.8008 20.4133C11.9747 20.3626 12.1414 20.2829 12.3008 20.1742C12.453 20.0655 12.5762 19.9133 12.6631 19.7104C12.7501 19.5075 12.7936 19.2684 12.7936 18.993C12.7936 18.7104 12.7501 18.4713 12.6631 18.2684C12.5762 18.0655 12.453 17.9133 12.3008 17.8046C12.1414 17.6959 11.9748 17.6162 11.8008 17.5655C11.6197 17.5148 11.424 17.493 11.2139 17.493H10.8226V20.4858ZM14.8298 21.6379V16.3408H18.598V17.493H16.1849V18.3408H18.1124V19.4858H16.1849V21.6379H14.8298Z" fill="white"/>
</svg>
