<svg width="22" height="22" viewBox="0 0 22 22" fill="none" xmlns="http://www.w3.org/2000/svg">
<path d="M20.858 20.0332L16.3005 15.4758C17.6993 13.8807 18.4711 11.8624 18.4711 9.72119C18.4711 7.38387 17.5608 5.18669 15.9082 3.5341C14.2556 1.88151 12.0584 0.971191 9.7211 0.971191C7.38378 0.971191 5.18659 1.88151 3.53401 3.5341C1.88142 5.18669 0.9711 7.38387 0.9711 9.72119C0.9711 12.0585 1.88142 14.2557 3.53401 15.9083C5.18659 17.5609 7.38378 18.4712 9.7211 18.4712C11.8624 18.4712 13.8806 17.6994 15.4757 16.3006L20.0331 20.8581C20.147 20.972 20.2963 21.029 20.4455 21.029C20.5948 21.029 20.744 20.972 20.858 20.8581C21.0858 20.6302 21.0858 20.2611 20.858 20.0332ZM4.35888 15.0834C2.92675 13.651 2.13777 11.7466 2.13777 9.72119C2.13777 7.69576 2.92675 5.79138 4.35888 4.35897C5.79129 2.92684 7.69567 2.13786 9.7211 2.13786C11.7465 2.13786 13.6509 2.92684 15.0833 4.35897C16.5155 5.79138 17.3044 7.69576 17.3044 9.72119C17.3044 11.7466 16.5155 13.651 15.0833 15.0834C13.6509 16.5155 11.7465 17.3045 9.7211 17.3045C7.69567 17.3045 5.79129 16.5155 4.35888 15.0834Z" fill="#000000"/>
</svg>
