<svg viewBox="0 0 21 21" fill="none" xmlns="http://www.w3.org/2000/svg">
<path d="M10.5 0C7.44684 0 4.96289 2.48395 4.96289 5.53711C4.96289 8.59027 7.44684 11.0742 10.5 11.0742C13.5532 11.0742 16.0371 8.59027 16.0371 5.53711C16.0371 2.48395 13.5532 0 10.5 0ZM10.5 9.84375C8.12532 9.84375 6.19336 7.91179 6.19336 5.53711C6.19336 3.16243 8.12532 1.23047 10.5 1.23047C12.8747 1.23047 14.8066 3.16243 14.8066 5.53711C14.8066 7.91179 12.8747 9.84375 10.5 9.84375Z" fill="#000000"/>
<path d="M17.3892 14.6916C15.8733 13.1524 13.8637 12.3047 11.7305 12.3047H9.26953C7.13639 12.3047 5.12671 13.1524 3.61077 14.6916C2.10226 16.2233 1.27148 18.2451 1.27148 20.3848C1.27148 20.7245 1.54695 21 1.88672 21H19.1133C19.4531 21 19.7285 20.7245 19.7285 20.3848C19.7285 18.2451 18.8977 16.2233 17.3892 14.6916ZM2.52902 19.7695C2.83726 16.2797 5.74264 13.5352 9.26953 13.5352H11.7305C15.2574 13.5352 18.1627 16.2797 18.471 19.7695H2.52902Z" fill="#000000"/>
</svg>
