<svg width="33" height="33" viewBox="0 0 33 33" fill="none" xmlns="http://www.w3.org/2000/svg">
<g clip-path="url(#clip0_211_346)">
<path d="M10.2635 21.7791C8.98754 21.7791 7.94946 22.8171 7.94946 24.0931C7.94946 25.3691 8.98754 26.4072 10.2635 26.4072C11.5395 26.4072 12.5776 25.3691 12.5776 24.0931C12.5776 22.8171 11.5395 21.7791 10.2635 21.7791ZM10.2635 25.4404C9.52064 25.4404 8.91626 24.836 8.91626 24.0931C8.91626 23.3502 9.52064 22.7458 10.2635 22.7458C11.0064 22.7458 11.6108 23.3502 11.6108 24.0931C11.6109 24.836 11.0065 25.4404 10.2635 25.4404Z" fill="black"/>
<path d="M26.5185 27.1487C25.6022 27.1487 24.8567 27.8934 24.8567 28.8087C24.8567 29.725 25.6022 30.4705 26.5185 30.4705C27.4338 30.4705 28.1785 29.7251 28.1785 28.8087C28.1785 27.8934 27.4339 27.1487 26.5185 27.1487ZM26.5185 29.5037C26.1353 29.5037 25.8235 29.192 25.8235 28.8087C25.8235 28.4265 26.1353 28.1155 26.5185 28.1155C26.9008 28.1155 27.2117 28.4265 27.2117 28.8087C27.2117 29.1919 26.9008 29.5037 26.5185 29.5037Z" fill="black"/>
<path d="M32.5166 28.3253H30.3764C30.1572 26.5669 28.7603 25.17 27.0019 24.9509V23.1029V18.3545C27.0019 17.2176 26.0769 16.2925 24.94 16.2925H23.98V11.6073C23.98 10.5651 23.1321 9.7171 22.0898 9.7171H21.4842C21.2762 9.02765 20.6355 8.52408 19.8791 8.52408H8.978L7.76299 1.73981C7.60121 0.840749 6.96584 0.23663 6.18189 0.23663H3.94595C3.94002 0.236501 0.483398 0.23663 0.483398 0.23663C0.216369 0.23663 0 0.453063 0 0.720028C0 0.986993 0.216369 1.20343 0.483398 1.20343H3.53203L4.84958 8.55469C4.07692 8.70384 3.49143 9.38491 3.49143 10.2004C3.49143 11.1259 4.24346 11.8787 5.16792 11.8787H5.44681L6.2584 16.4052C3.48827 17.8542 1.59315 20.7563 1.59315 24.0932C1.59315 28.874 5.48264 32.7635 10.2635 32.7635C15.0443 32.7635 18.9338 28.874 18.9338 24.0932C18.9338 23.923 18.9283 23.7541 18.9185 23.5863H26.0351V24.9509C24.1172 25.1897 22.6278 26.8281 22.6278 28.8088C22.6278 30.9542 24.3731 32.6995 26.5185 32.6995C28.4992 32.6995 30.1376 31.2101 30.3764 29.2922H32.5166C32.7836 29.2922 33 29.0757 33 28.8088C33 28.5418 32.7836 28.3253 32.5166 28.3253ZM6.18189 1.20343C6.65994 1.20343 6.7902 1.79285 6.81141 1.91061L7.9958 8.52401H5.82637L4.51423 1.20343H6.18189ZM4.45822 10.2005C4.45822 9.80921 4.77656 9.49087 5.16792 9.49087H8.57078C8.57149 9.49087 8.5722 9.49094 8.57291 9.49094C8.57362 9.49094 8.57433 9.49087 8.57504 9.49087H19.8791C20.2704 9.49087 20.5888 9.80921 20.5888 10.2005C20.5888 10.5928 20.2704 10.912 19.8791 10.912H15.5417C15.2747 10.912 15.0583 11.1284 15.0583 11.3954C15.0583 11.6624 15.2747 11.8788 15.5417 11.8788H19.8791C20.6357 11.8788 21.2765 11.3744 21.4844 10.6839H22.0898C22.5989 10.6839 23.0132 11.0981 23.0132 11.6073V16.2925H14.0459C12.9022 15.7357 11.6187 15.4229 10.2635 15.4229C10.2477 15.4229 10.232 15.4234 10.2162 15.4235L9.58057 11.8787H13.311C13.578 11.8787 13.7944 11.6623 13.7944 11.3953C13.7944 11.1284 13.578 10.9119 13.311 10.9119H5.16792C4.77656 10.9119 4.45822 10.5928 4.45822 10.2005ZM6.42894 11.8787H8.59837L9.24471 15.483C8.52135 15.5681 7.82506 15.7424 7.16699 15.9949L6.42894 11.8787ZM10.2635 31.7967C6.01573 31.7967 2.55995 28.3409 2.55995 24.0932C2.55995 19.8455 6.01573 16.3897 10.2635 16.3897C14.5112 16.3897 17.967 19.8455 17.967 24.0932C17.967 28.3409 14.5112 31.7967 10.2635 31.7967ZM18.8079 22.6195C18.6752 21.8482 18.4404 21.1115 18.1177 20.4237H20.1714C20.4384 20.4237 20.6548 20.2073 20.6548 19.9403C20.6548 19.6734 20.4384 19.4569 20.1714 19.4569H17.5869C17.0522 18.6152 16.3766 17.8716 15.5933 17.2593H24.9399C25.5438 17.2593 26.0351 17.7507 26.0351 18.3545V19.4569H22.4022C22.1351 19.4569 21.9188 19.6734 21.9188 19.9403C21.9188 20.2073 22.1351 20.4237 22.4022 20.4237H26.0351V22.6195H18.8079ZM26.5185 31.7327C24.9062 31.7327 23.5945 30.421 23.5945 28.8087C23.5945 27.1974 24.9062 25.8865 26.5185 25.8865C28.1297 25.8865 29.4406 27.1974 29.4406 28.8087C29.4406 30.421 28.1298 31.7327 26.5185 31.7327Z" fill="black"/>
<path d="M10.2634 17.6135C6.6904 17.6135 3.78369 20.5203 3.78369 24.0932C3.78369 27.6671 6.69046 30.5747 10.2634 30.5747C13.8363 30.5747 16.743 27.6671 16.743 24.0932C16.743 20.5203 13.8363 17.6135 10.2634 17.6135ZM10.2634 29.608C7.22355 29.608 4.75049 27.1341 4.75049 24.0933C4.75049 21.0535 7.22355 18.5804 10.2634 18.5804C13.3032 18.5804 15.7762 21.0535 15.7762 24.0933C15.7762 27.1341 13.3032 29.608 10.2634 29.608Z" fill="black"/>
</g>
<defs>
<clipPath id="clip0_211_346">
<rect width="33" height="33" fill="white"/>
</clipPath>
</defs>
</svg>
