<svg width="42" height="42" viewBox="0 0 42 42" fill="none" xmlns="http://www.w3.org/2000/svg">
<path d="M12.597 25.8083H10.7228V31.2158H12.6891C13.488 31.2773 14.2561 31.0007 14.8091 30.4477C15.3007 29.9254 15.5772 29.2187 15.5465 28.5121C15.5772 27.7747 15.3007 27.0988 14.7784 26.5765C14.2868 26.0541 13.5494 25.8083 12.597 25.8083ZM14.4097 30.2019C13.9488 30.6321 13.3036 30.8778 12.6584 30.8471H11.1222V26.1463H12.6277C13.2729 26.1156 13.9181 26.3614 14.4097 26.7915C14.8705 27.2217 15.1163 27.8361 15.0856 28.4814C15.1471 29.1266 14.9013 29.7718 14.4097 30.2019Z" fill="white"/>
<path d="M16.9905 28.6657H19.4484V28.297H16.9905V26.1463H19.5099V25.8083H16.5604V31.1851H19.5713V30.8471H16.9905V28.6657Z" fill="white"/>
<path d="M22.5209 28.6041C22.2443 28.4505 21.9371 28.3276 21.6299 28.2047C21.3226 28.1126 21.0461 27.9589 20.831 27.7131C20.7081 27.5595 20.6467 27.3444 20.6467 27.1601C20.6467 26.8836 20.7696 26.6071 20.9846 26.4227C21.1997 26.2077 21.507 26.1155 21.7835 26.1155C22.2136 26.1462 22.6438 26.2998 22.9817 26.5149V26.054C22.5823 25.839 22.1522 25.7161 21.722 25.7161C21.3226 25.7161 20.9232 25.8697 20.616 26.1462C20.3087 26.392 20.1551 26.7607 20.1551 27.1601C20.1551 27.4059 20.2165 27.6517 20.3394 27.8668C20.4623 28.0511 20.616 28.2047 20.8003 28.3276C21.0768 28.4812 21.3841 28.6041 21.6913 28.727C21.9985 28.8192 22.3058 29.0036 22.5209 29.2493C22.6438 29.4337 22.7359 29.6488 22.7359 29.8638C22.7359 30.1404 22.613 30.4476 22.398 30.6319C22.1829 30.847 21.8756 30.9392 21.5991 30.9392C21.1075 30.9085 20.616 30.6934 20.2473 30.3554V30.847C20.6467 31.1543 21.1383 31.3079 21.6299 31.3079C22.0293 31.3079 22.4287 31.1543 22.7359 30.8777C23.0432 30.6012 23.1968 30.2325 23.1968 29.8331C23.1968 29.5566 23.1353 29.3108 22.9817 29.065C22.8895 28.8499 22.7359 28.6963 22.5209 28.6041Z" fill="white"/>
<path d="M24.5794 25.8083H24.1492V31.2158H24.5794V25.8083Z" fill="white"/>
<path d="M28.8807 29.0959H30.0175V30.5399C29.5567 30.755 29.0651 30.8779 28.5428 30.8779C27.8668 30.9086 27.1909 30.6628 26.6993 30.2019C26.2692 29.7718 26.0234 29.188 26.0234 28.5736C25.9927 27.2524 27.068 26.1464 28.4199 26.1156C29.0958 26.1156 29.741 26.3 30.3248 26.6687V26.2078H30.3555C29.7717 25.9313 29.1573 25.7777 28.5121 25.7469C27.7439 25.7162 27.0066 25.9927 26.4228 26.5458L26.3921 26.5765C25.3167 27.6826 25.3475 29.4338 26.4228 30.4785C26.9758 31.0008 27.7439 31.308 28.5121 31.2773C29.188 31.2773 29.8332 31.1237 30.417 30.8164V28.7579H28.8807V29.0959Z" fill="white"/>
<path d="M35.9473 30.5092L31.8303 25.8083H31.4923V31.1851H31.8917V26.4843L36.0088 31.1851H36.3467V25.8083H35.9473V30.5092Z" fill="white"/>
<path d="M7.77322 28.8809C7.3738 28.8809 7.09729 29.1881 7.09729 29.5568C7.06656 29.2188 6.79004 28.973 6.45208 29.0038C5.92977 29.0038 5.74542 29.3724 5.74542 29.9869V31.2159H8.54132V29.8948V29.864C8.57205 29.1881 8.26481 28.8809 7.77322 28.8809ZM6.97439 30.9087H5.96049V29.9869C5.96049 29.4339 6.14484 29.2495 6.45208 29.2495C6.85149 29.2495 6.94367 29.5261 6.94367 29.8948V30.9087H6.97439ZM8.32626 30.9394H7.18946V29.9869C7.18946 29.4032 7.3738 29.1881 7.7425 29.1881C8.11119 29.1881 8.32626 29.4032 8.32626 29.9255V30.9394Z" fill="white"/>
<path d="M5.77612 25.8083V26.1463L7.12799 27.2217L5.77612 28.297V28.635L7.34306 27.3753H8.57202V27.0988H7.34306L5.77612 25.8083Z" fill="white"/>
<path d="M6.237 18.3422V18.3115C6.26772 17.6356 6.85148 17.1133 7.52741 17.1747C7.95755 17.1747 8.29552 17.2976 8.91 17.6663V17.144C8.47986 16.8982 7.98828 16.7446 7.46596 16.7446C6.51351 16.7139 5.71468 17.4512 5.68396 18.373C5.68396 20.4008 8.63348 19.6327 8.63348 21.4147V21.4454C8.60276 22.1213 8.019 22.6744 7.34307 22.6436C6.85148 22.6436 6.48279 22.49 5.77613 21.9677V22.5207C6.237 22.8587 6.79003 23.043 7.37379 23.0738H7.40452C8.35697 23.1045 9.1558 22.3364 9.1558 21.3839C9.1558 19.2025 6.237 20.0013 6.237 18.3422Z" fill="white"/>
<path d="M13.2728 16.7139C13.2114 16.7139 13.1499 16.7139 13.0885 16.7139C11.3372 16.7753 9.95462 18.2194 10.0161 19.9707C10.0775 21.7219 11.5216 23.1045 13.2728 23.0431C13.3343 23.0431 13.3957 23.0431 13.4572 23.0431C15.2085 22.9816 16.5911 21.5376 16.5296 19.7863C16.4989 18.035 15.0241 16.6832 13.2728 16.7139ZM13.3036 22.6437C11.7981 22.6437 10.5691 21.4454 10.5691 19.9399C10.5691 18.4344 11.7674 17.2055 13.2728 17.2055C13.3036 17.2055 13.3036 17.2055 13.3343 17.2055C14.8398 17.2055 16.038 18.4344 16.038 19.9399C16.038 21.4147 14.809 22.6129 13.3036 22.6437Z" fill="white"/>
<path d="M20.6774 17.1748C21.4455 17.1748 22.2136 17.3898 22.8895 17.7893V17.2669C22.2136 16.929 21.4762 16.7754 20.7081 16.7446C20.6774 16.7446 20.6774 16.7446 20.6467 16.7446C18.8954 16.7446 17.4514 18.1579 17.4514 19.9092C17.4514 21.722 18.8647 23.0738 20.7388 23.0738C21.5069 23.0738 22.2443 22.8587 22.9203 22.4901V21.9985C22.2443 22.3979 21.507 22.613 20.7081 22.6437C19.0797 22.6437 17.9429 21.5069 17.9429 19.9092C17.9429 19.8785 17.9429 19.8171 17.9429 19.7863C17.9737 18.3116 19.2026 17.144 20.6774 17.1748Z" fill="white"/>
<path d="M24.3643 16.8062H23.8727V22.9817H24.3643V16.8062Z" fill="white"/>
<path d="M28.8808 17.2056V16.8062H25.5011V22.9817H28.9422V22.5823H25.962V20.0936H28.7886V19.6942H25.962V17.2056H28.8808Z" fill="white"/>
<path d="M30.5706 10.7534H30.079V13.9487H5.65326V14.3174H30.079V22.9817H30.5706V14.3174H36.3467V13.9487H30.5706V10.7534Z" fill="white"/>
<path d="M33.9195 22.9817V19.6635L36.316 16.8062H35.7322L33.6737 19.2641L31.6152 16.8062H31.0314L33.4279 19.6635V22.9817H33.9195Z" fill="white"/>
<path d="M21.0154 0C9.40161 0 0 9.40161 0 21.0154C0 32.6291 9.40161 42.0307 21.0154 42.0307C32.5984 42.0307 42 32.6291 42.0307 21.0461C42 9.40161 32.5984 0 21.0154 0ZM21.0154 41.7542C9.55523 41.7542 0.245794 32.4448 0.245794 20.9846C0.245794 9.52451 9.52451 0.21507 21.0154 0.21507C32.4755 0.21507 41.7542 9.52451 41.7849 20.9846C41.7849 32.4755 32.4755 41.7542 21.0154 41.7542Z" fill="white"/>
</svg>
